<svg width="14" height="14" viewBox="0 0 14 14" fill="none" xmlns="http://www.w3.org/2000/svg">
<path d="M4.34961 13.4043C3.87305 13.4043 3.48828 13.2637 3.19531 12.9824C2.90234 12.7051 2.75586 12.3379 2.75586 11.8809V2.52344C2.75586 2.06641 2.90234 1.69922 3.19531 1.42188C3.48828 1.14062 3.87305 1 4.34961 1H8.69141C9.17188 1 9.55664 1.14062 9.8457 1.42188C10.1387 1.69922 10.2852 2.06641 10.2852 2.52344V11.8809C10.2852 12.3379 10.1387 12.7051 9.8457 12.9824C9.55664 13.2637 9.17188 13.4043 8.69141 13.4043H4.34961ZM4.47266 12.4609H8.57422C8.82031 12.4609 9.00977 12.3965 9.14258 12.2676C9.27539 12.1426 9.3418 11.9629 9.3418 11.7285V2.67578C9.3418 2.44141 9.27539 2.26172 9.14258 2.13672C9.00977 2.00781 8.82031 1.94336 8.57422 1.94336H4.47266C4.22266 1.94336 4.03125 2.00781 3.89844 2.13672C3.76562 2.26172 3.69922 2.44141 3.69922 2.67578V11.7285C3.69922 11.9629 3.76562 12.1426 3.89844 12.2676C4.03125 12.3965 4.22266 12.4609 4.47266 12.4609ZM5.28125 12.0332C5.20312 12.0332 5.13672 12.0078 5.08203 11.957C5.03125 11.9062 5.00586 11.8398 5.00586 11.7578C5.00586 11.6758 5.03125 11.6094 5.08203 11.5586C5.13672 11.5117 5.20312 11.4883 5.28125 11.4883H7.77148C7.84961 11.4883 7.91406 11.5117 7.96484 11.5586C8.01562 11.6094 8.04102 11.6758 8.04102 11.7578C8.04102 11.8398 8.01562 11.9062 7.96484 11.957C7.91406 12.0078 7.84961 12.0332 7.77148 12.0332H5.28125ZM5.81445 3.18555C5.69727 3.18555 5.59766 3.14648 5.51562 3.06836C5.4375 2.98633 5.39844 2.88672 5.39844 2.76953C5.39844 2.65625 5.4375 2.56055 5.51562 2.48242C5.59766 2.40039 5.69727 2.35938 5.81445 2.35938H7.23242C7.3457 2.35938 7.44141 2.40039 7.51953 2.48242C7.60156 2.56055 7.64258 2.65625 7.64258 2.76953C7.64258 2.88672 7.60156 2.98633 7.51953 3.06836C7.44141 3.14648 7.3457 3.18555 7.23242 3.18555H5.81445Z" fill="black"/>
</svg>
